# AST/ASF file generated using VICON BodyLanguage
# -----------------------------------------------
:version 1.10
:name VICON
:units
  mass 1.0
  length 0.45
  angle deg
:documentation
   .ast/.asf automatically generated from VICON data using
   VICON BodyBuilder and BodyLanguage model FoxedUp or BRILLIANT.MOD
:root
   order TX TY TZ RX RY RZ
   axis XYZ
   position 0 0 0  
   orientation 0 0 0 
:bonedata
  begin
     id 1 
     name lhipjoint
     direction 0.602128 -0.715006 0.355257 
     length 2.21237 
     axis 0 0 0  XYZ
  end
  begin
     id 2 
     name lfemur
     direction 0.34202 -0.939693 0  
     length 6.71649  
     axis 0 0 20  XYZ
    dof rx ry rz
    limits (-160.0 20.0)
           (-70.0 70.0)
           (-60.0 70.0)
  end
  begin
     id 3 
     name ltibia
     direction 0.34202 -0.939693 0   
     length 6.97123   
     axis 0 0 20   XYZ
    dof rx
    limits (-10.0 170.0)
  end
  begin
     id 4 
     name lfoot
     direction 0.0655697 -0.180151 0.981451   
     length 1.80924   
     axis -90 7.62852e-016 20   XYZ
    dof rx rz
    limits (-45.0 90.0)
           (-70.0 20.0)
  end
  begin
     id 5 
     name ltoes
     direction 1.53545e-011 -4.21827e-011 1   
     length 0.916331   
     axis -90 7.62852e-016 20   XYZ
    dof rx
    limits (-90.0 20.0)
  end
  begin
     id 6 
     name rhipjoint
     direction -0.625414 -0.698792 0.347201   
     length 2.2637  
     axis 0 0 0  XYZ 
  end
  begin
     id 7 
     name rfemur
     direction -0.34202 -0.939693 0   
     length 7.07595   
     axis 0 0 -20   XYZ
    dof rx ry rz
    limits (-160.0 20.0)
           (-70.0 70.0)
           (-70.0 60.0)
  end
  begin
     id 8 
     name rtibia
     direction -0.34202 -0.939693 0   
     length 7.22924   
     axis 0 0 -20   XYZ
    dof rx
    limits (-10.0 170.0)
 end
 begin
     id 9 
     name rfoot
     direction -0.0766747 -0.210662 0.974547   
     length 1.98482  
     axis -90 -7.62852e-016 -20   XYZ
    dof rx rz
    limits (-45.0 90.0)
           (-20.0 70.0)
  end
  begin
     id 10 
     name rtoes
     direction -1.53532e-011 -4.21867e-011 1   
     length 0.999842   
     axis -90 -7.62852e-016 -20   XYZ
    dof rx
    limits (-90.0 20.0)
  end
  begin
     id 11 
     name lowerback
     direction -0.0224668 0.997354 -0.0691422   
     length 2.09945   
     axis 0 0 0   XYZ
    dof rx ry rz
    limits (-20.0 45.0)
           (-30.0 30.0)
           (-30.0 30.0)
  end
  begin
     id 12 
     name upperback
     direction 0.0134698 0.998451 -0.0539888   
     length 2.09758   
     axis 0 0 0   XYZ
    dof rx ry rz
    limits (-20.0 45.0)
           (-30.0 30.0)
           (-30.0 30.0)
  end
  begin
     id 13 
     name thorax
     direction 0.0241905 0.99948 -0.0213333   
     length 2.10428   
     axis 0 0 0   XYZ
    dof rx ry rz
    limits (-20.0 45.0)
           (-30.0 30.0)
           (-30.0 30.0)
  end
  begin
     id 14 
     name lowerneck
     direction -0.00866847 0.995978 0.0891737   
     length 1.3959   
     axis 0 0 0   XYZ
    dof rx ry rz
    limits (-20.0 45.0)
           (-30.0 30.0)
           (-30.0 30.0)
  end
  begin
     id 15 
     name upperneck
     direction 0.0680679 0.992203 0.104404   
     length 1.39452   
     axis 0 0 0   XYZ
    dof rx ry rz
    limits (-20.0 45.0)
           (-30.0 30.0)
           (-30.0 30.0)
  end
  begin
     id 16
     name head
     direction 0.0242216 0.999358 0.0264054  
     length 1.40433  
     axis 0 0 0   XYZ
    dof rx ry rz
    limits (-20.0 45.0)
           (-30.0 30.0)
           (-30.0 30.0)
  end
  begin
     id 17 
     name lclavicle
     direction 0.929368 0.362991 -0.0671771  
     length 3.04887  
     axis 0 0 0   XYZ
    dof ry rz
    limits (-20.0 10.0)
           (0.0 20.0)
  end
  begin
     id 18 
     name lhumerus
     direction 1 -4.48967e-011 -7.13741e-028   
     length 4.77195   
     axis -180 -30 -90   XYZ
    dof rx ry rz
    limits (-60.0 90.0)
           (-90.0 90.0)
           (-90.0 90.0)
  end
  begin
     id 19
     name lradius
     direction 1 -4.48977e-011 3.60404e-027   
     length 2.98444   
     axis -180 -30 -90   XYZ
    dof rx
    limits (-10.0 170.0)
  end
  begin
     id 20
     name lwrist
     direction 1 -4.48997e-011 7.54877e-027   
     length 1.49222   
     axis -7.18178e-015 90 90   XYZ
    dof ry
    limits (-180.0 0.0)
 end
  begin
     id 21 
     name lhand
     direction 1 -4.489e-011 1.51105e-026   
     length 0.992285   
     axis -9.63605e-015 90 90   XYZ
    dof rx rz
    limits (-90.0 90.0)
           (-45.0 45.0)
  end
  begin
     id 22 
     name lfingers
     direction 1 -4.48998e-011 3.01948e-026   
     length 0.800006   
     axis -1.92718e-014 90 90   XYZ
    dof rx
    limits (0.0 90.0)
  end
  begin
     id 23
     name lthumb
     direction 0.707107 -6.34881e-011 0.707107   
     length 1.14865   
     axis -90 45 -3.53137e-014   XYZ
    dof rx rz
    limits (-45.0 45.0)
           (-45.0 45.0)
  end
  begin
     id 24 
     name rclavicle
     direction -0.945672 0.324529 0.0196374   
     length 3.4236  
     axis 0 0 0   XYZ 
    dof ry rz
    limits (-10.0 20.0)
           (-20.0 0.0)
  end
  begin
     id 25 
     name rhumerus
     direction -1 -4.4896e-011 1.02757e-029  
     length 4.62052   
     axis -180 30 90   XYZ
    dof rx ry rz
    limits (-90.0 60.0)
           (-90.0 90.0)
           (-90.0 90.0)
  end
  begin
     id 26 
     name rradius
     direction -1 -4.48982e-011 3.85962e-027   
     length 2.95332   
     axis -180 30 90   XYZ
    dof rx
    limits (-10.0 170.0)
  end
  begin
     id 27 
     name rwrist
     direction -1 -4.48961e-011 7.55118e-027   
     length 1.47666   
     axis -7.18178e-015 -90 -90   XYZ
    dof ry
    limits (-180.0 0.0)
  end
  begin
     id 28
     name rhand
     direction -1 -4.48984e-011 1.50994e-026   
     length 0.990956   
     axis -9.63605e-015 -90 -90   XYZ
    dof rx rz
    limits (-90.0 90.0)
           (-45.0 45.0)
  end
  begin
     id 29
     name rfingers
     direction -1 -4.4892e-011 3.02158e-026   
     length 0.798934   
     axis -1.92718e-014 -90 -90   XYZ
    dof rx
    limits (0.0 90.0)
  end
  begin
     id 30
     name rthumb
     direction -0.707107 -6.34916e-011 0.707107   
     length 1.14711   
     axis -90 -45 3.53137e-014   XYZ
    dof rx rz
    limits (-45.0 45.0)
           (-45.0 45.0)
  end
:hierarchy
  begin
    root lhipjoint rhipjoint lowerback
    lhipjoint lfemur
    lfemur ltibia
    ltibia lfoot
    lfoot ltoes
    rhipjoint rfemur
    rfemur rtibia
    rtibia rfoot
    rfoot rtoes
    lowerback upperback
    upperback thorax
    thorax lowerneck lclavicle rclavicle
    lowerneck upperneck
    upperneck head
    lclavicle lhumerus
    lhumerus lradius
    lradius lwrist
    lwrist lhand lthumb
    lhand lfingers
    rclavicle rhumerus
    rhumerus rradius
    rradius rwrist
    rwrist rhand rthumb
    rhand rfingers
  end

#!OML:ASF H:\ManfredObstacles\Project 1\Capture day 1\Session 1\Male.ASF
:FULLY-SPECIFIED
:DEGREES
81
root -17.1678 16.4212 22.5421 -171.231 -11.2555 -180.154
lowerback -10.1441 -4.73 -4.40398
upperback 1.36825 -5.83255 0.984972
thorax 7.68976 -3.05891 2.51461
lowerneck 0.106827 -3.6032 -5.92804
upperneck -7.86056 -3.78368 11.9251
head -1.95513 -1.85705 4.62046
rclavicle -5.94118e-014 1.98785e-015
rhumerus -45.739 -24.087 -68.7301
rradius 25.8149
rwrist 34.7949
rhand 1.03953 -5.96041
rfingers 7.12502
rthumb 26.5857 -34.1143
lclavicle -5.94118e-014 1.98785e-015
lhumerus -28.0706 26.3045 77.264
lradius 14.1894
lwrist -41.3562
lhand -8.13062 7.98809
lfingers 7.12502
lthumb 17.7832 37.195
rfemur -32.7386 -9.94774 26.5141
rtibia 27.2173
rfoot -9.11209 5.03674
rtoes 14.5058
lfemur 0.772352 -5.30231 -16.7755
ltibia 28.4836
lfoot 13.0823 -9.7525
ltoes 5.34364
82
root -17.1112 16.437 22.3142 -171.325 -11.1073 -180.015
lowerback -9.91229 -4.86332 -4.27023
upperback 1.25233 -6.04083 1.00611
thorax 7.43851 -3.15184 2.44913
lowerneck 0.256325 -3.63513 -5.93852
upperneck -7.9131 -3.82455 12.0056
head -1.98935 -1.88543 4.65099
rclavicle -7.30534e-015 -5.36719e-015
rhumerus -45.4216 -22.9604 -69.7913
rradius 26.8967
rwrist 33.0708
rhand 0.660547 -5.78584
rfingers 7.12502
rthumb 26.2229 -33.9942
lclavicle -7.30534e-015 -5.36719e-015
lhumerus -29.5712 29.2661 74.8191
lradius 13.2914
lwrist -44.9505
lhand -7.5686 7.72943
lfingers 7.12502
lthumb 18.3239 36.8864
rfemur -31.9869 -10.9553 27.2724
rtibia 27.3276
rfoot -8.95711 6.36134
rtoes 4.91388
lfemur -1.81061 -4.60231 -16.201
ltibia 33.9346
lfoot 14.8747 -8.74125
ltoes 0.839759
83
root -17.0594 16.4545 22.094 -171.583 -10.6332 -180.303
lowerback -9.68246 -4.91829 -4.63611
upperback 1.39505 -6.07308 0.94039
thorax 7.49648 -3.18424 2.58757
lowerneck 0.289452 -3.68031 -6.01071
upperneck -8.01781 -3.8736 12.0801
head -2.01731 -1.91164 4.68867
rclavicle 3.26752e-014 9.93923e-016
rhumerus -44.7896 -21.9561 -70.8231
rradius 28.0328
rwrist 31.4044
rhand 0.354759 -5.3544
rfingers 7.12502
rthumb 25.9301 -33.6059
lclavicle 3.26752e-014 9.93923e-016
lhumerus -30.7561 32.466 72.4697
lradius 12.4374
lwrist -49.0327
lhand -7.08071 7.50743
lfingers 7.12502
lthumb 18.7932 36.6196
rfemur -30.8579 -11.7436 27.4151
rtibia 27.1647
rfoot -8.24678 7.5288
rtoes -9.62684
lfemur -4.20001 -3.99342 -16.2631
ltibia 39.4008
lfoot 16.5697 -7.63905
ltoes -3.74108
84
root -17.0095 16.4728 21.8828 -171.951 -9.82086 -180.389
lowerback -9.27513 -4.77857 -4.68091
upperback 1.51567 -5.89132 0.827139
thorax 7.36894 -3.096 2.55272
lowerneck 0.33571 -3.75647 -5.9378
upperneck -8.04638 -3.97444 12.0876
head -2.02557 -1.96628 4.68077
rclavicle 2.90723e-014 -1.0138e-014
rhumerus -44.2314 -21.0741 -71.8307
rradius 29.1204
rwrist 29.6943
rhand 0.224453 -5.06122
rfingers 7.12502
rthumb 25.8053 -33.3309
lclavicle 2.90723e-014 -1.0138e-014
lhumerus -31.9691 35.2154 70.1087
lradius 11.7525
lwrist -52.9281
lhand -6.71778 7.49108
lfingers 7.12502
lthumb 19.1422 36.5691
rfemur -29.4599 -11.8636 27.5516
rtibia 26.6887
rfoot -10.5778 8.5728
rtoes 21.3458
lfemur -6.51155 -3.15633 -16.2278
ltibia 44.7751
lfoot 17.9148 -6.85318
ltoes -7.49036
85
root -16.9642 16.4879 21.6819 -172.152 -8.99522 -179.221
lowerback -9.22822 -4.51011 -3.35268
upperback 1.56841 -5.70439 1.06295
thorax 7.26851 -2.95496 2.10067
lowerneck 0.53479 -3.82693 -5.83948
upperneck -8.27097 -4.06238 11.9879
head -2.12166 -2.0205 4.64274
rclavicle -1.39149e-015 4.57205e-015
rhumerus -43.6172 -20.2765 -72.7068
rradius 30.0585
rwrist 28.0314
rhand 0.479298 -5.47087
rfingers 7.12502
rthumb 26.0494 -33.7049
lclavicle -1.39149e-015 4.57205e-015
lhumerus -33.2044 37.8309 67.806
lradius 11.2111
lwrist -56.6468
lhand -6.77332 7.37455
lfingers 7.12502
lthumb 19.0888 36.4578
rfemur -28.3213 -11.8674 29.1009
rtibia 25.9899
rfoot -10.6884 9.75296
rtoes 22.8309
lfemur -9.37697 -2.04284 -14.8283
ltibia 49.9734
lfoot 18.4888 -6.65426
ltoes -14.7973
86
root -16.9255 16.5044 21.4887 -172.215 -8.10799 -178.146
lowerback -9.29292 -4.25865 -2.12545
upperback 1.6282 -5.53377 1.33883
thorax 7.2631 -2.82948 1.73206
lowerneck 0.702217 -3.84396 -5.80948
upperneck -8.50288 -4.08597 11.8297
head -2.22071 -2.03947 4.5976
rclavicle -3.47625e-014 5.96354e-016
rhumerus -42.8848 -19.541 -73.381
rradius 30.8869
rwrist 26.9042
rhand 1.09625 -6.19501
rfingers 7.12502
rthumb 26.64 -34.3406
lclavicle -3.47625e-014 5.96354e-016
lhumerus -34.2544 39.7938 66.0836
lradius 10.9635
lwrist -59.4043
lhand -7.1467 7.18293
lfingers 7.12502
lthumb 18.7297 36.3012
rfemur -27.2136 -12.1094 30.5817
rtibia 25.1509
rfoot -11.0668 11.2772
rtoes 27.4649
lfemur -12.5025 -1.19806 -13.6378
ltibia 54.7932
lfoot 17.8379 -6.25725
ltoes -18.3336
87
root -16.8883 16.5121 21.3037 -172.29 -6.97332 -177.673
lowerback -9.1819 -4.03429 -1.65685
upperback 1.67735 -5.30869 1.52782
thorax 7.21393 -2.7071 1.71294
lowerneck 0.668699 -3.81961 -5.86915
upperneck -8.39945 -4.08911 11.6825
head -2.18738 -2.03952 4.55998
rclavicle -1.24737e-014 -3.77691e-015
rhumerus -42.1383 -18.79 -73.8747
rradius 31.6176
rwrist 26.2819
rhand 1.40693 -6.43525
rfingers 7.12502
rthumb 26.9373 -34.5353
lclavicle -1.24737e-014 -3.77691e-015
lhumerus -34.6219 39.6769 65.9992
lradius 11.2117
lwrist -59.3699
lhand -7.48478 7.45049
lfingers 7.12502
lthumb 18.4045 36.5998
rfemur -26.0049 -12.2454 31.3345
rtibia 24.3195
rfoot -11.1421 12.7963
rtoes 27.9931
lfemur -15.3281 -0.634985 -13.2575
ltibia 59.0124
lfoot 16.0428 -5.17912
ltoes -17.2206
88
root -16.8501 16.5131 21.1245 -172.383 -5.71418 -177.429
lowerback -8.94799 -3.77912 -1.46811
upperback 1.6866 -5.00165 1.62579
thorax 7.0666 -2.55321 1.77505
lowerneck 0.564571 -3.78565 -5.90796
upperneck -8.00078 -4.10033 11.6184
head -2.05325 -2.04292 4.53738
rclavicle 6.90777e-015 -1.68967e-014
rhumerus -41.5269 -18.2092 -74.2648
rradius 32.2208
rwrist 25.8321
rhand 0.971202 -6.09951
rfingers 7.12502
rthumb 26.5203 -34.2633
lclavicle 6.90777e-015 -1.68967e-014
lhumerus -34.5229 38.2701 66.8466
lradius 11.6363
lwrist -57.5039
lhand -7.86405 8.18279
lfingers 7.12502
lthumb 18.0396 37.3662
rfemur -24.9294 -12.4736 31.8406
rtibia 23.7744
rfoot -11.2962 14.3717
rtoes 28.4735
lfemur -17.8612 -0.293974 -13.2235
ltibia 62.4612
lfoot 13.6532 -4.00451
ltoes -12.1791
89
root -16.8112 16.5184 20.9532 -172.46 -4.63902 -177.536
lowerback -8.73244 -3.58509 -1.60354
upperback 1.79121 -4.72547 1.57412
thorax 7.04767 -2.42313 1.84932
lowerneck 0.449534 -3.78627 -5.88729
upperneck -7.67585 -4.12913 11.6845
head -1.93508 -2.05553 4.54594
rclavicle -2.78795e-014 -1.78906e-015
rhumerus -40.7752 -18.0107 -74.6504
rradius 32.6826
rwrist 25.74
rhand 0.466124 -5.78664
rfingers 7.12502
rthumb 26.0368 -34.0225
lclavicle -2.78795e-014 -1.78906e-015
lhumerus -34.0924 36.9427 67.8015
lradius 11.9822
lwrist -55.2688
lhand -8.30714 8.71484
lfingers 7.12502
lthumb 17.6133 37.937
rfemur -24.0256 -12.8963 31.9401
rtibia 23.5295
rfoot -11.5493 15.8662
rtoes 29.0827
lfemur -20.3092 -0.531664 -13.5921
ltibia 65.0536
lfoot 11.3733 -3.1626
ltoes -11.2944
90
root -16.771 16.5245 20.7955 -172.43 -3.87714 -177.801
lowerback -8.60563 -3.4863 -1.89124
upperback 1.94854 -4.55582 1.4801
thorax 7.14944 -2.35098 1.93965
lowerneck 0.377692 -3.80508 -5.78646
upperneck -7.57029 -4.15434 11.7376
head -1.89088 -2.0681 4.54203
rclavicle -2.63141e-014 -5.56597e-015
rhumerus -39.9332 -18.0492 -75.0132
rradius 33.1336
rwrist 25.887
rhand 0.227531 -5.60473
rfingers 7.12502
rthumb 25.8083 -33.874
lclavicle -2.63141e-014 -5.56597e-015
lhumerus -33.1901 34.7511 69.4394
lradius 12.5416
lwrist -51.8155
lhand -8.79674 8.78633
lfingers 7.12502
lthumb 17.1421 38.0501
rfemur -23.3406 -13.1697 31.8011
rtibia 23.4677
rfoot -11.8765 16.9677
rtoes 29.7601
lfemur -22.8724 -1.36321 -14.0443
ltibia 66.8511
lfoot 9.57343 -2.50818
ltoes 13.543
91
root -16.7362 16.5287 20.6322 -172.465 -2.6556 -177.857
lowerback -8.51764 -3.20931 -1.93711
upperback 2.09213 -4.17835 1.41453
thorax 7.22928 -2.16841 1.95515
lowerneck 0.378768 -3.81474 -5.67156
upperneck -7.49055 -4.17223 11.7473
head -1.86865 -2.07992 4.52457
rclavicle -1.46852e-014 3.37934e-015
rhumerus -39.2744 -18.0439 -75.285
rradius 33.5621
rwrist 25.9198
rhand 0.034845 -5.37541
rfingers 7.12502
rthumb 25.6237 -33.6714
lclavicle -1.46852e-014 3.37934e-015
lhumerus -32.3318 31.5559 71.5195
lradius 13.4018
lwrist -47.3762
lhand -9.05417 8.87818
lfingers 7.12502
lthumb 16.8943 38.1633
rfemur -22.6184 -13.0249 31.7848
rtibia 23.5633
rfoot -12.343 17.9767
rtoes 29.6946
lfemur -25.0609 -2.09035 -14.243
ltibia 67.8587
lfoot 7.79966 -1.91933
ltoes -11.9458
92
root -16.6996 16.5226 20.4762 -172.444 -1.18463 -177.583
lowerback -8.31065 -2.87673 -1.70491
upperback 2.10456 -3.76775 1.46181
thorax 7.08803 -1.95935 1.94744
lowerneck 0.375261 -3.77868 -5.70371
upperneck -7.24676 -4.14681 11.8524
head -1.7954 -2.06848 4.55755
rclavicle 2.34069e-014 -5.96354e-015
rhumerus -38.808 -17.8056 -75.5831
rradius 33.9819
rwrist 25.8014
rhand -0.149382 -5.27205
rfingers 7.12502
rthumb 25.4473 -33.5933
lclavicle 2.34069e-014 -5.96354e-015
lhumerus -31.8725 28.2429 73.4075
lradius 14.3805
lwrist -42.7662
lhand -9.22968 8.5694
lfingers 7.12502
lthumb 16.7253 37.8689
rfemur -22.0307 -12.4535 32.1024
rtibia 23.7964
rfoot -12.9823 18.8222
rtoes 29.0094
lfemur -27.1571 -2.8702 -13.9406
ltibia 68.1868
lfoot 5.94142 -1.47237
ltoes -8.22426
93
root -16.6669 16.5053 20.3196 -172.547 0.367772 -177.402
lowerback -7.98873 -2.59483 -1.52923
upperback 2.13018 -3.39263 1.473
thorax 6.90048 -1.75835 1.93097
lowerneck 0.593512 -3.66882 -5.73869
upperneck -7.15147 -4.02401 11.879
head -1.81356 -2.01745 4.57408
rclavicle -8.62228e-015 9.93923e-016
rhumerus -38.5201 -17.1957 -76.0164
rradius 34.5592
rwrist 25.4135
rhand -0.268442 -5.3441
rfingers 7.12502
rthumb 25.3332 -33.6815
lclavicle -8.62228e-015 9.93923e-016
lhumerus -31.7634 25.2591 74.9379
lradius 15.4585
lwrist -38.5518
lhand -9.49736 7.74193
lfingers 7.12502
lthumb 16.4676 37.063
rfemur -21.3183 -11.8099 32.25
rtibia 24.148
rfoot -13.4842 19.9015
rtoes 29.7298
lfemur -28.7648 -3.73984 -13.6806
ltibia 67.7763
lfoot 3.89086 -1.11152
ltoes -8.08827
94
root -16.6392 16.4894 20.1607 -172.66 1.89496 -177.574
lowerback -7.72062 -2.36396 -1.65493
upperback 2.18407 -3.06896 1.38321
thorax 6.78915 -1.60339 1.96279
lowerneck 0.954844 -3.52475 -5.77919
upperneck -7.28833 -3.83904 11.8642
head -1.93019 -1.94121 4.58525
rclavicle -3.62285e-014 1.98785e-015
rhumerus -38.2959 -16.1378 -76.5865
rradius 35.2773
rwrist 24.6161
rhand -0.258411 -5.51621
rfingers 7.12502
rthumb 25.3428 -33.8523
lclavicle -3.62285e-014 1.98785e-015
lhumerus -31.8112 22.6644 76.2475
lradius 16.5998
lwrist -35.1384
lhand -9.41056 7.33684
lfingers 7.12502
lthumb 16.5512 36.651
rfemur -20.7032 -11.2003 31.9746
rtibia 24.7112
rfoot -14.0311 20.7904
rtoes 30.9489
lfemur -30.0587 -4.82367 -13.7681
ltibia 66.6006
lfoot 1.83294 -0.330132
ltoes -9.52799
95
root -16.6144 16.4778 20.003 -172.631 3.47506 -177.851
lowerback -7.59908 -2.12933 -1.81629
upperback 2.28223 -2.73325 1.2517
thorax 6.80743 -1.44392 1.96454
lowerneck 0.785886 -3.43871 -5.968
upperneck -7.1684 -3.72516 12.0138
head -1.86931 -1.87669 4.65644
rclavicle 1.22004e-014 -1.78906e-015
rhumerus -37.9171 -14.8547 -77.3115
rradius 36.078
rwrist 23.4357
rhand -0.146199 -5.715
rfingers 7.12502
rthumb 25.4503 -34.0358
lclavicle 1.22004e-014 -1.78906e-015
lhumerus -31.7192 20.1325 77.5672
lradius 17.7539
lwrist -32.1421
lhand -8.96538 7.40731
lfingers 7.12502
lthumb 16.9798 36.6851
rfemur -20.3452 -10.6 31.5923
rtibia 25.4231
rfoot -14.7914 21.5482
rtoes 31.0798
lfemur -31.4023 -6.25421 -13.7845
ltibia 64.6735
lfoot 0.0433864 1.00417
ltoes -7.45744
